<?xml version="1.0" encoding="utf-8"?>
<!-- Generator: Adobe Illustrator 22.0.1, SVG Export Plug-In . SVG Version: 6.00 Build 0)  -->
<svg version="1.1" id="Layer_1" xmlns="http://www.w3.org/2000/svg" xmlns:xlink="http://www.w3.org/1999/xlink" x="0px" y="0px"
	 viewBox="0 0 532.9 244.3" style="enable-background:new 0 0 532.9 244.3;" xml:space="preserve">
<style type="text/css">
	.st0{fill:#1A4789;}
</style>
<path class="st0" d="M94.9,22.4c10.5,0.7,21.6-0.4,32.6-0.8c9.7-0.4,19.4-0.3,29.1-0.5c78.6-1.6,157.2-0.4,235.7-0.5
	c8.9,0,17.8,0.1,26.7,0.6c9.4,0.6,18.9,0.7,28.3,1.4c11.2,0.8,22.4,1.4,33.7,2c8.3,0.5,16.3,2.3,21.6,9.4c4.3,5.6,6.8,12.3,8,19.2
	c1.7,10.2,3.2,20.4,4.7,30.6c1.9,12.9,3.5,25.8,5.6,38.6c2,12.1,3.4,24.3,3.3,36.6c-0.1,12.9-9.2,22.2-22.1,23.1
	c-6.8,0.5-13.5,1.9-20.3,2.8c-8.1,1.1-16.2,2.1-24.4,3.2c-9.3,1.2-18.7,2.4-28,3.7c-7.8,1-15.6,2.1-23.3,3.1
	c-9.1,1.2-18.2,2.4-27.4,3.6c-6.6,0.9-13.1,1.7-19.7,2.5c-7.9,1-15.8,2.1-23.7,3.1c-8.1,1-16.3,2-24.4,3c-8.5,1.1-16.9,2.1-25.4,3.2
	c-9.3,1.2-18.7,2.4-28,3.6c-7.9,1-15.8,2.2-23.7,3.2c-6.2,0.8-12.5,1.5-18.7,2.2c-6.7,0.7-13.4,1.4-20.1,2.2
	c-7.4,0.8-14.7,1.7-22,2.6c-10.6,1.3-21.1,2.7-31.7,4c-9.6,1.2-19.2,2.3-28.7,3.5c-8.7,1.1-17.3,2.6-26,3.2c-9.8,0.7-19.7,1.1-29-3
	c-12.7-5.7-19.1-16.1-21.2-29.3c-1.6-9.9-2.3-19.8-3.5-29.7c-1.7-13.4-3-26.8-5.2-40c-1.6-9.6-2.7-19.3-4.3-29
	c-2.3-13.7-5.3-27.3-7.2-41.1C13.3,42.7,25.9,28,43.8,25.3c10.1-1.6,20.4-1.7,30.6-2.3C81.1,22.6,87.7,22.7,94.9,22.4z"/>
</svg>
