<?xml version="1.0" encoding="utf-8"?>
<!-- Generator: Adobe Illustrator 16.0.3, SVG Export Plug-In . SVG Version: 6.00 Build 0)  -->
<!DOCTYPE svg PUBLIC "-//W3C//DTD SVG 1.1//EN" "http://www.w3.org/Graphics/SVG/1.1/DTD/svg11.dtd">
<svg version="1.1" id="Layer_1" xmlns="http://www.w3.org/2000/svg" xmlns:xlink="http://www.w3.org/1999/xlink" x="0px" y="0px"
	 width="549.667px" height="155.5px" viewBox="0 0 549.667 155.5" enable-background="new 0 0 549.667 155.5" xml:space="preserve">
<path fill-rule="evenodd" clip-rule="evenodd" fill="#00458C" d="M318.676,100.752c0.438-0.651,0.868-1.308,1.316-1.952
	c5.324-7.653,14.442-10.436,22.835-8.528c5.127,1.166,8.635,4.288,10.618,9.159c0.233,0.571,0.224,1.27,0.891,1.818
	c0.514-0.344,0.689-0.963,0.998-1.458c5.739-9.199,16.361-11.939,25.571-8.973c4.405,1.419,7.266,4.472,8.937,8.735
	c1.338,3.412,1.695,6.987,1.707,10.59c0.044,13.195,0.018,26.391,0.018,39.586c0,0.32-0.027,0.643,0.002,0.96
	c0.087,0.943-0.368,1.265-1.268,1.26c-4.318-0.021-8.637-0.021-12.955-0.002c-0.811,0.004-1.179-0.3-1.139-1.119
	c0.027-0.559-0.001-1.119-0.001-1.679c0-11.196,0.017-22.393-0.016-33.588c-0.006-2.075-0.095-4.164-0.348-6.222
	c-0.656-5.355-4.565-7.725-9.672-5.941c-3.172,1.108-5.394,3.361-7.146,6.121c-2.705,4.262-3.573,9.008-3.573,13.97
	c0.001,8.397,0.001,16.794,0,25.191c0,0.48,0.01,0.96-0.002,1.44c-0.043,1.784-0.045,1.809-1.883,1.817
	c-3.759,0.017-7.518,0.016-11.276,0c-1.916-0.008-1.938-0.028-1.94-1.985c-0.009-9.917-0.002-19.833-0.006-29.75
	c-0.001-2.639-0.025-5.278-0.023-7.917c0.001-1.206-0.181-2.385-0.386-3.569c-0.931-5.393-4.914-6.548-9.042-5.49
	c-2.918,0.748-5.076,2.644-6.813,5.025c-2.87,3.936-4.273,8.414-4.344,13.23c-0.122,8.315-0.04,16.633-0.084,24.95
	c-0.009,1.74,0.745,3.998-0.325,5.089c-1.182,1.203-3.481,0.355-5.291,0.402c-2.797,0.073-5.598-0.017-8.396,0.037
	c-1.03,0.021-1.494-0.307-1.38-1.361c0.043-0.396,0.006-0.799,0.006-1.199c0-17.514-0.001-35.027,0.001-52.542
	c0-2.373,0.009-2.365,2.211-3.205c3.532-1.348,7.222-2.008,10.937-2.586c1.091-0.17,1.39,0.214,1.377,1.261
	C318.759,95.116,318.495,97.891,318.676,100.752z"/>
<path fill-rule="evenodd" clip-rule="evenodd" fill="#FFD200" d="M433.088,74.209c-3.081,0.017-4.716-1.17-5.44-3.962
	c-1.425-5.487-2.787-10.991-4.164-16.49c-0.706-2.822,0.23-5.041,2.583-6.664c0.716-0.494,1.514-0.904,2.326-1.217
	c16.066-6.19,32.574-10.82,49.489-14.035c10.604-2.015,21.277-3.531,32.01-4.594c7.239-0.716,14.506-1.144,21.791-1.024
	c0.56,0.009,1.118,0.056,1.678,0.082c2.642,0.123,4.246,1.556,5.152,3.966c1.124,2.991,2.312,5.958,3.474,8.935
	c0.466,1.191,0.958,2.371,1.4,3.57c1.112,3.013,0.374,4.308-2.811,4.87c-2.91,0.513-5.826,0.991-8.745,1.451
	c-16.185,2.55-32.161,6.102-48.08,9.939c-16.168,3.897-32.087,8.609-47.65,14.491c-0.597,0.225-1.208,0.427-1.828,0.568
	C433.81,74.2,433.321,74.189,433.088,74.209z"/>
<path fill-rule="evenodd" clip-rule="evenodd" fill="#00458C" d="M43.833,110.398c6.99,1.974,11.334,6.53,12.725,13.565
	c1.772,8.964-1.889,18.896-10.992,24.093c-4.68,2.672-9.779,3.984-15.087,4.246c-8.545,0.421-17.103-0.063-25.655,0.015
	c-1.062,0.009-1.447-0.404-1.363-1.414c0.04-0.477,0.006-0.958,0.006-1.438c0-24.303,0-48.606,0-72.909c0-0.4-0.008-0.8,0.002-1.2
	c0.041-1.668,0.042-1.676,1.708-1.79c7.583-0.518,15.179-0.426,22.771-0.467c3.197-0.017,6.393-0.04,9.56,0.536
	c2.206,0.401,4.372,0.92,6.456,1.76c7.889,3.179,11.979,9.577,11.46,18.047c-0.419,6.83-3.736,11.907-9.523,15.442
	c-0.341,0.208-0.699,0.387-1.043,0.589C44.527,109.67,44.079,109.701,43.833,110.398z"/>
<path fill-rule="evenodd" clip-rule="evenodd" fill="#EC1C2E" d="M534.322,53.043c3.048-0.074,4.383,1.296,5.159,3.313
	c1.493,3.876,2.941,7.77,4.372,11.67c0.549,1.499,1.057,3.018,1.479,4.557c0.85,3.099,0.094,4.675-2.856,5.879
	c-3.181,1.298-6.39,2.526-9.597,3.758c-16.707,6.414-33.428,12.791-50.228,18.958c-0.45,0.165-0.896,0.346-1.351,0.493
	c-3.555,1.153-6.596-0.278-7.898-3.794c-0.693-1.871-1.211-3.806-1.877-5.688c-1.761-4.97-3.559-9.926-5.342-14.887
	c-0.107-0.301-0.199-0.609-0.333-0.899c-2.018-4.373,0.252-7.654,4.236-8.569c4.046-0.929,8.018-2.176,12.048-3.176
	c15.12-3.75,30.266-7.391,45.559-10.385C530.122,53.797,532.559,53.369,534.322,53.043z"/>
<path fill-rule="evenodd" clip-rule="evenodd" fill="#00458C" d="M425.704,153.414c-2.86,0.091-5.868-0.277-8.819-1.059
	c-7.642-2.022-13.101-6.64-15.776-14.091c-3.372-9.39-3.625-18.958-0.313-28.43c4.487-12.837,15.89-20.486,30.435-19.686
	c2.467,0.136,4.916,0.493,7.323,1.162c7.815,2.172,13.225,7.049,15.913,14.639c3.188,9.005,3.394,18.193,0.338,27.289
	C450.434,146.235,438.986,153.844,425.704,153.414z"/>
<path fill-rule="evenodd" clip-rule="evenodd" fill="#00458C" d="M96.391,143.214c-0.468,0.03-0.505,0.41-0.654,0.646
	c-3.944,6.27-9.758,9.22-17.019,9.543c-1.832,0.082-3.667,0.04-5.494-0.305c-9.808-1.846-13.253-9.626-12.522-17.569
	c0.582-6.333,3.814-11.063,9.114-14.458c4.529-2.901,9.568-4.327,14.813-5.194c2.928-0.484,5.883-0.637,8.834-0.758
	c1.289-0.052,1.681-0.499,1.575-1.705c-0.111-1.271-0.018-2.565-0.189-3.825c-0.498-3.645-2.576-5.903-6.166-6.78
	c-3.486-0.851-6.985-0.682-10.473-0.114c-3.965,0.646-7.758,1.862-11.343,3.697c-0.272,0.139-0.576,0.218-1.066,0.4
	c-0.424-4.093-0.81-8.052-1.261-12.003c-0.115-1.001,0.479-1.21,1.197-1.452c2.729-0.92,5.506-1.661,8.335-2.184
	c7.129-1.319,14.277-1.711,21.438-0.247c1.169,0.24,2.329,0.565,3.459,0.949c6.386,2.164,9.865,6.732,10.987,13.282
	c0.558,3.256,0.443,6.533,0.483,9.807c0.145,11.751,0.288,23.502,0.425,35.253c0.022,1.94,0.366,2.114-2.055,2.112
	c-3.678-0.003-7.356,0.003-11.033,0.094c-1.264,0.031-1.72-0.409-1.624-1.65c0.149-1.912,0.231-3.83,0.303-5.747
	C96.479,144.415,96.711,143.792,96.391,143.214z"/>
<path fill-rule="evenodd" clip-rule="evenodd" fill="#00458C" d="M133.019,101.804c0.787-1.134,1.228-1.755,1.655-2.385
	c6.772-9.976,19.032-10.879,26.44-8.102c4.533,1.699,7.276,5.064,8.735,9.556c0.794,2.445,1.143,4.975,1.141,7.555
	c-0.009,13.916-0.001,27.832-0.008,41.748c-0.001,2.102-0.019,2.116-2.049,2.123c-3.679,0.012-7.358,0.011-11.037,0
	c-2.092-0.006-2.116-0.02-2.118-2.082c-0.01-9.037,0.009-18.074-0.01-27.112c-0.009-3.998-0.077-7.995-0.134-11.992
	c-0.02-1.452-0.312-2.853-0.886-4.195c-0.894-2.09-2.451-3.276-4.712-3.584c-2.835-0.387-5.388,0.276-7.701,1.937
	c-3.259,2.34-5.139,5.633-6.404,9.332c-1.047,3.06-1.348,6.243-1.355,9.452c-0.02,8.478-0.006,16.955-0.007,25.433
	c0,0.56-0.018,1.119-0.002,1.679c0.021,0.792-0.32,1.145-1.139,1.141c-4.398-0.019-8.797-0.019-13.196-0.001
	c-0.828,0.004-1.158-0.357-1.124-1.153c0.021-0.479,0.001-0.96,0.001-1.439c0-17.595,0-35.189,0-52.784
	c0-2.465,0.001-2.47,2.391-3.295c3.337-1.151,6.772-1.874,10.28-2.22c1.558-0.154,1.593-0.086,1.542,1.526
	c-0.077,2.396-0.201,4.792-0.3,7.188C133.006,100.493,133.019,100.858,133.019,101.804z"/>
<path fill-rule="evenodd" clip-rule="evenodd" fill="#00458C" d="M297.225,135.931c0,4.354-0.008,8.271,0.006,12.188
	c0.003,0.768-0.082,1.362-0.98,1.649c-6.016,1.924-12.083,3.151-18.366,1.408c-7.86-2.181-12.822-8.36-13.355-16.819
	c-0.227-3.586-0.146-7.194-0.158-10.792c-0.021-6.239,0.004-12.478-0.012-18.716c-0.004-1.824-0.036-1.85-1.853-1.861
	c-3.12-0.021-6.24-0.039-9.358,0.011c-1.132,0.019-1.755-0.156-1.71-1.535c0.105-3.276,0.092-6.558,0.05-9.836
	c-0.015-1.132,0.341-1.552,1.51-1.528c3.118,0.065,6.238,0.035,9.357,0.018c1.976-0.011,2.001-0.031,2.005-1.962
	c0.014-5.919-0.015-11.838,0.016-17.756c0.012-2.362-0.515-2.134,2.291-3.123c3.86-1.362,7.83-2.243,11.895-2.675
	c1.691-0.18,1.736-0.116,1.74,1.624c0.016,7.279,0.001,14.557,0.01,21.836c0.003,2.037,0.021,2.051,2.109,2.057
	c3.92,0.011,7.839-0.01,11.758,0.01c1.73,0.008,1.755,0.038,1.765,1.704c0.02,3.12,0.018,6.239,0.003,9.358
	c-0.009,1.705-0.028,1.738-1.711,1.747c-4,0.021-7.999-0.003-11.998,0.012c-1.9,0.007-1.925,0.029-1.925,2.004
	c0.003,8.638-0.006,17.276,0.044,25.914c0.03,5.157,2.827,7.82,7.947,7.734C291.392,138.545,294.246,137.653,297.225,135.931z"/>
<path fill-rule="evenodd" clip-rule="evenodd" fill="#00458C" d="M240.048,109.261c-2.08-0.001-4.16-0.038-6.238,0.016
	c-0.975,0.025-1.469-0.295-1.568-1.3c-0.054-0.546-0.274-1.084-0.466-1.608c-1.175-3.208-3.919-4.799-7.173-4.177
	c-3.373,0.646-5.395,3.228-5.303,6.664c0.048,1.793,0.971,2.993,2.384,3.911c1.63,1.059,3.478,1.599,5.317,2.137
	c2.758,0.806,5.538,1.542,8.288,2.375c2.148,0.65,4.178,1.584,6.071,2.81c4.268,2.762,6.438,6.728,6.884,11.744
	c1.079,12.122-6.429,18.082-14.22,20.141c-6.26,1.653-12.521,1.729-18.615-0.625c-7.775-3.003-11.241-9.209-11.807-16.827
	c-0.09-1.212,0.379-1.508,1.488-1.497c3.999,0.042,7.999,0.047,11.997-0.005c1.081-0.014,1.672,0.316,1.746,1.427
	c0.021,0.317,0.083,0.636,0.166,0.944c1.421,5.354,6.613,7.585,11.512,4.946c2.095-1.128,3.132-2.934,3.177-5.268
	c0.043-2.288-1.336-3.686-3.239-4.632c-2.017-1.003-4.206-1.51-6.378-2.038c-2.949-0.717-5.9-1.428-8.73-2.549
	c-8.188-3.242-11.555-9.566-10.618-18.563c0.672-6.447,4.172-11.223,9.948-14.053c8.507-4.169,16.985-4.193,25.02,1.264
	c4.361,2.962,7.009,7.145,7.75,12.448c0.32,2.294,0.346,2.299-1.873,2.314C243.727,109.271,241.888,109.261,240.048,109.261z"/>
<path fill-rule="evenodd" clip-rule="evenodd" fill="#00458C" d="M506.777,3.32c4.456,0.024,9.324,0.062,14.183,0.649
	c2.699,0.327,4.348,1.647,5.343,4.12c1.282,3.184,2.72,6.306,4.078,9.46c1.055,2.451,0.485,3.284-2.305,3.372
	c-5.752,0.182-11.5,0.416-17.245,0.807c-12.537,0.854-24.93,2.699-37.243,5.146c-7.759,1.542-15.425,3.459-23.021,5.659
	c-0.611,0.177-1.235,0.333-1.863,0.425c-2.943,0.429-4.243-0.353-5.263-3.214c-1.26-3.536-2.504-7.077-3.707-10.631
	c-1.288-3.804-0.527-5.291,3.288-6.426c7.737-2.3,15.595-4.125,23.527-5.582C479.704,4.691,492.982,3.479,506.777,3.32z"/>
<path fill-rule="evenodd" clip-rule="evenodd" fill="#00458C" d="M196.266,121.924c0,9.189,0,18.377,0,27.566
	c0,0.56-0.023,1.12,0.002,1.678c0.038,0.816-0.333,1.156-1.141,1.136c-1.038-0.026-2.077-0.002-3.116-0.002
	c-3.516,0-7.032-0.037-10.547,0.021c-1.127,0.019-1.653-0.31-1.525-1.483c0.052-0.475,0.007-0.958,0.007-1.438
	c0-18.378,0-36.756,0-55.134c0-0.479,0.038-0.962-0.006-1.438c-0.099-1.055,0.449-1.302,1.401-1.438
	c4.38-0.624,8.766-0.478,13.156-0.225c1.739,0.1,1.763,0.131,1.764,1.99C196.271,102.747,196.266,112.335,196.266,121.924z"/>
<path fill-rule="evenodd" clip-rule="evenodd" fill="#00458C" d="M179.065,74.018c-0.011-5.161,4.274-9.453,9.462-9.476
	c5.349-0.025,9.725,4.296,9.658,9.537c-0.067,5.179-4.305,9.428-9.494,9.519C183.469,83.688,179.076,79.317,179.065,74.018z"/>
<path fill-rule="evenodd" clip-rule="evenodd" fill="#FFFFFF" d="M24.651,140.032c-1.594-0.074-3.188-0.164-4.783-0.216
	c-1.051-0.035-1.553-0.419-1.545-1.589c0.045-6.384,0.049-12.77-0.002-19.154c-0.01-1.195,0.49-1.511,1.549-1.537
	c4.07-0.101,8.139-0.214,12.144,0.729c0.619,0.146,1.238,0.309,1.839,0.516c4.526,1.562,6.85,4.457,7.141,8.872
	c0.32,4.853-1.858,8.725-6.049,10.754C31.678,139.989,28.183,140.118,24.651,140.032z"/>
<path fill-rule="evenodd" clip-rule="evenodd" fill="#FFFFFF" d="M18.345,95.651c0-2.797,0.045-5.595-0.022-8.39
	c-0.029-1.173,0.254-1.726,1.551-1.759c3.67-0.092,7.338-0.481,11,0.106c0.394,0.063,0.796,0.088,1.185,0.172
	c4.519,0.979,6.972,3.385,7.651,7.487c0.716,4.324-1.196,8.444-4.917,10.614c-2.776,1.619-5.858,2.06-8.979,2.236
	c-1.99,0.113-3.993-0.011-5.99-0.004c-1.095,0.003-1.53-0.442-1.503-1.594C18.392,101.565,18.345,98.608,18.345,95.651z"/>
<path fill-rule="evenodd" clip-rule="evenodd" fill="#FFFFFF" d="M414.422,121.331c0.122-3.095,0.41-6.586,1.865-9.867
	c2.779-6.267,8.721-9.219,15.28-7.624c3.812,0.927,6.27,3.355,7.681,6.906c1.688,4.244,1.951,8.691,1.654,13.188
	c-0.205,3.124-0.782,6.173-2.196,9.008c-2.981,5.98-8.884,8.489-15.277,6.515c-3.271-1.01-5.423-3.22-6.85-6.253
	C414.872,129.572,414.647,125.666,414.422,121.331z"/>
<path fill-rule="evenodd" clip-rule="evenodd" fill="#FFFFFF" d="M82.611,141.376c-3.592,0.02-5.908-1.34-6.884-3.947
	c-1.109-2.964-0.142-6.338,2.413-8.396c1.456-1.173,3.153-1.872,4.927-2.373c3.483-0.985,7.06-1.248,10.661-1.285
	c0.678-0.007,1.191,0.03,1.311,0.953c0.729,5.619-3.824,12.787-9.291,14.545C84.675,141.218,83.585,141.425,82.611,141.376z"/>
</svg>
